<svg width="113" height="35" viewBox="0 0 113 35" fill="none" xmlns="http://www.w3.org/2000/svg">
<path d="M4.24432 27H0.920455L10.5341 0.818181H13.8068L23.4205 27H20.0966L12.2727 4.96023H12.0682L4.24432 27ZM5.47159 16.7727H18.8693V19.5852H5.47159V16.7727ZM27.0895 27V7.36364H30.0043V10.3295H30.2088C30.5668 9.35795 31.2145 8.5696 32.152 7.96449C33.0895 7.35937 34.1463 7.05682 35.3224 7.05682C35.544 7.05682 35.821 7.06108 36.1534 7.0696C36.4858 7.07812 36.7372 7.09091 36.9077 7.10795V10.1761C36.8054 10.1506 36.571 10.1122 36.2045 10.0611C35.8466 10.0014 35.4673 9.97159 35.0668 9.97159C34.1122 9.97159 33.2599 10.1719 32.5099 10.5724C31.7685 10.9645 31.1804 11.5099 30.7457 12.2088C30.3196 12.8991 30.1065 13.6875 30.1065 14.5739V27H27.0895ZM50.2543 7.36364V9.92045H40.0781V7.36364H50.2543ZM43.044 2.65909H46.0611V21.375C46.0611 22.2273 46.1847 22.8665 46.4318 23.2926C46.6875 23.7102 47.0114 23.9915 47.4034 24.1364C47.804 24.2727 48.2259 24.3409 48.669 24.3409C49.0014 24.3409 49.2741 24.3239 49.4872 24.2898C49.7003 24.2472 49.8707 24.2131 49.9986 24.1875L50.6122 26.8977C50.4077 26.9744 50.1222 27.0511 49.7557 27.1278C49.3892 27.2131 48.9247 27.2557 48.3622 27.2557C47.5099 27.2557 46.6747 27.0724 45.8565 26.706C45.0469 26.3395 44.3736 25.7812 43.8366 25.0312C43.3082 24.2812 43.044 23.3352 43.044 22.1932V2.65909ZM54.7926 27V7.36364H57.8097V27H54.7926ZM56.3267 4.09091C55.7386 4.09091 55.2315 3.89062 54.8054 3.49006C54.3878 3.08949 54.179 2.60795 54.179 2.04545C54.179 1.48295 54.3878 1.00142 54.8054 0.600851C55.2315 0.200284 55.7386 0 56.3267 0C56.9148 0 57.4176 0.200284 57.8352 0.600851C58.2614 1.00142 58.4744 1.48295 58.4744 2.04545C58.4744 2.60795 58.2614 3.08949 57.8352 3.49006C57.4176 3.89062 56.9148 4.09091 56.3267 4.09091ZM77.2447 11.7614L74.5344 12.5284C74.364 12.0767 74.1126 11.6378 73.7802 11.2116C73.4563 10.777 73.0131 10.419 72.4506 10.1378C71.8881 9.85653 71.168 9.71591 70.2901 9.71591C69.0884 9.71591 68.087 9.9929 67.2859 10.5469C66.4933 11.0923 66.0969 11.7869 66.0969 12.6307C66.0969 13.3807 66.3697 13.973 66.9151 14.4077C67.4606 14.8423 68.3129 15.2045 69.4719 15.4943L72.3867 16.2102C74.1424 16.6364 75.4506 17.2884 76.3114 18.1662C77.1722 19.0355 77.6026 20.1562 77.6026 21.5284C77.6026 22.6534 77.2788 23.6591 76.631 24.5455C75.9918 25.4318 75.0969 26.1307 73.9464 26.642C72.7958 27.1534 71.4577 27.4091 69.9322 27.4091C67.9293 27.4091 66.2717 26.9744 64.9592 26.1051C63.6467 25.2358 62.8157 23.9659 62.4663 22.2955L65.3299 21.5795C65.6026 22.6364 66.1183 23.429 66.8768 23.9574C67.6438 24.4858 68.6452 24.75 69.881 24.75C71.2873 24.75 72.4038 24.4517 73.2305 23.8551C74.0657 23.25 74.4833 22.5256 74.4833 21.6818C74.4833 21 74.2447 20.429 73.7674 19.9688C73.2901 19.5 72.5572 19.1506 71.5685 18.9205L68.2958 18.1534C66.4975 17.7273 65.1765 17.0668 64.3327 16.1719C63.4975 15.2685 63.0799 14.1392 63.0799 12.7841C63.0799 11.6761 63.391 10.696 64.0131 9.84375C64.6438 8.99148 65.5004 8.32244 66.5827 7.83665C67.6737 7.35085 68.9094 7.10795 70.2901 7.10795C72.2333 7.10795 73.7589 7.53409 74.8668 8.38636C75.9833 9.23864 76.7759 10.3636 77.2447 11.7614ZM82.1442 27V7.36364H85.0589V10.3295H85.2635C85.6214 9.35795 86.2692 8.5696 87.2067 7.96449C88.1442 7.35937 89.201 7.05682 90.3771 7.05682C90.5987 7.05682 90.8757 7.06108 91.2081 7.0696C91.5405 7.07812 91.7919 7.09091 91.9624 7.10795V10.1761C91.8601 10.1506 91.6257 10.1122 91.2592 10.0611C90.9013 10.0014 90.522 9.97159 90.1214 9.97159C89.1669 9.97159 88.3146 10.1719 87.5646 10.5724C86.8232 10.9645 86.2351 11.5099 85.8004 12.2088C85.3743 12.8991 85.1612 13.6875 85.1612 14.5739V27H82.1442ZM98.0795 34.3636C97.5682 34.3636 97.1122 34.321 96.7116 34.2358C96.3111 34.1591 96.0341 34.0824 95.8807 34.0057L96.6477 31.3466C97.3807 31.5341 98.0284 31.6023 98.5909 31.5511C99.1534 31.5 99.652 31.2486 100.087 30.7969C100.53 30.3537 100.935 29.6335 101.301 28.6364L101.864 27.1023L94.6023 7.36364H97.875L103.295 23.0114H103.5L108.92 7.36364H112.193L103.858 29.8636C103.483 30.8778 103.018 31.7173 102.464 32.3821C101.911 33.0554 101.267 33.554 100.534 33.8778C99.8097 34.2017 98.9915 34.3636 98.0795 34.3636Z" fill="#D5906E"/>
</svg>
