<svg width="124" height="35" viewBox="0 0 124 35" fill="none" xmlns="http://www.w3.org/2000/svg">
<path d="M0.275568 27V0.818181H17.9176V5.3821H5.81108V11.6207H17.0099V16.1847H5.81108V22.4361H17.9688V27H0.275568ZM27.8157 27.3707C26.5629 27.3707 25.4464 27.1534 24.4663 26.7188C23.4862 26.2756 22.7106 25.6236 22.1396 24.7628C21.5771 23.8935 21.2958 22.8111 21.2958 21.5156C21.2958 20.4247 21.4961 19.5085 21.8967 18.767C22.2972 18.0256 22.8427 17.429 23.533 16.9773C24.2234 16.5256 25.0075 16.1847 25.8853 15.9545C26.7717 15.7244 27.7006 15.5625 28.6722 15.4688C29.8143 15.3494 30.7347 15.2386 31.4336 15.1364C32.1325 15.0256 32.6396 14.8636 32.9549 14.6506C33.2702 14.4375 33.4279 14.1222 33.4279 13.7045V13.6278C33.4279 12.8182 33.1722 12.1918 32.6609 11.7486C32.158 11.3054 31.4421 11.0838 30.5131 11.0838C29.533 11.0838 28.7532 11.3011 28.1737 11.7358C27.5941 12.1619 27.2106 12.6989 27.0231 13.3466L21.9862 12.9375C22.2418 11.7443 22.7447 10.7131 23.4947 9.84375C24.2447 8.96591 25.212 8.29261 26.3967 7.82386C27.5898 7.34659 28.9705 7.10795 30.5387 7.10795C31.6296 7.10795 32.6737 7.2358 33.6708 7.49148C34.6765 7.74716 35.5671 8.14347 36.3427 8.6804C37.1268 9.21733 37.7447 9.90767 38.1964 10.7514C38.6481 11.5866 38.8739 12.5881 38.8739 13.7557V27H33.7092V24.277H33.5558C33.2404 24.8906 32.8185 25.4318 32.2901 25.9006C31.7617 26.3608 31.1268 26.723 30.3853 26.9872C29.6438 27.2429 28.7873 27.3707 27.8157 27.3707ZM29.3754 23.6122C30.1765 23.6122 30.8839 23.4545 31.4975 23.1392C32.1112 22.8153 32.5927 22.3807 32.9421 21.8352C33.2915 21.2898 33.4663 20.6719 33.4663 19.9815V17.8977C33.2958 18.0085 33.0614 18.1108 32.7631 18.2045C32.4734 18.2898 32.1452 18.3707 31.7788 18.4474C31.4123 18.5156 31.0458 18.5795 30.6793 18.6392C30.3129 18.6903 29.9805 18.7372 29.6822 18.7798C29.043 18.8736 28.4847 19.0227 28.0075 19.2273C27.5302 19.4318 27.1594 19.7088 26.8952 20.0582C26.631 20.3991 26.4989 20.8253 26.4989 21.3366C26.4989 22.0781 26.7674 22.6449 27.3043 23.0369C27.8498 23.4205 28.5401 23.6122 29.3754 23.6122ZM43.0991 27V7.36364H48.3789V10.7898H48.5835C48.9414 9.57102 49.5423 8.65057 50.386 8.02841C51.2298 7.39773 52.2013 7.08239 53.3008 7.08239C53.5735 7.08239 53.8675 7.09943 54.1829 7.13352C54.4982 7.16761 54.7752 7.21449 55.0139 7.27415V12.1065C54.7582 12.0298 54.4045 11.9616 53.9528 11.902C53.5011 11.8423 53.0877 11.8125 52.7127 11.8125C51.9116 11.8125 51.1957 11.9872 50.565 12.3366C49.9428 12.6776 49.4485 13.1548 49.082 13.7685C48.7241 14.3821 48.5451 15.0895 48.5451 15.8906V27H43.0991ZM69.2585 7.36364V11.4545H57.4332V7.36364H69.2585ZM60.1179 2.65909H65.5639V20.9659C65.5639 21.4687 65.6406 21.8608 65.794 22.142C65.9474 22.4148 66.1605 22.6065 66.4332 22.7173C66.7145 22.8281 67.0384 22.8835 67.4048 22.8835C67.6605 22.8835 67.9162 22.8622 68.1719 22.8196C68.4276 22.7685 68.6236 22.7301 68.7599 22.7045L69.6165 26.7571C69.3438 26.8423 68.9602 26.9403 68.4659 27.0511C67.9716 27.1705 67.3707 27.2429 66.6634 27.2685C65.3509 27.3196 64.2003 27.1449 63.2116 26.7443C62.2315 26.3437 61.4688 25.7216 60.9233 24.8778C60.3778 24.0341 60.1094 22.9687 60.1179 21.6818V2.65909ZM78.674 15.6477V27H73.228V0.818181H78.5206V10.8281H78.7507C79.1939 9.66903 79.9098 8.76136 80.8984 8.10511C81.8871 7.44034 83.1271 7.10795 84.6186 7.10795C85.9822 7.10795 87.1712 7.40625 88.1854 8.00284C89.2081 8.59091 90.0007 9.43892 90.5632 10.5469C91.1342 11.6463 91.4155 12.9631 91.407 14.4972V27H85.9609V15.4688C85.9695 14.2585 85.6626 13.3168 85.0405 12.6435C84.4268 11.9702 83.5661 11.6335 82.4581 11.6335C81.7166 11.6335 81.0604 11.7912 80.4893 12.1065C79.9268 12.4219 79.4837 12.8821 79.1598 13.4872C78.8445 14.0838 78.6825 14.804 78.674 15.6477ZM101.139 0.818181V27H95.6928V0.818181H101.139ZM108.864 34.3636C108.173 34.3636 107.526 34.3082 106.92 34.1974C106.324 34.0952 105.83 33.9631 105.438 33.8011L106.665 29.7358C107.304 29.9318 107.879 30.0384 108.391 30.0554C108.911 30.0724 109.358 29.9531 109.733 29.6974C110.116 29.4418 110.428 29.0071 110.666 28.3935L110.986 27.5625L103.942 7.36364H109.669L113.734 21.7841H113.939L118.043 7.36364H123.808L116.176 29.1222C115.81 30.179 115.311 31.0994 114.68 31.8835C114.058 32.6761 113.27 33.2855 112.315 33.7116C111.361 34.1463 110.21 34.3636 108.864 34.3636Z" fill="white"/>
</svg>
